<?xml version="1.0" standalone="no"?>
<!DOCTYPE svg PUBLIC "-//W3C//DTD SVG 20010904//EN"
 "http://www.w3.org/TR/2001/REC-SVG-20010904/DTD/svg10.dtd">
<svg version="1.0" xmlns="http://www.w3.org/2000/svg"
 width="949.000000pt" height="949.000000pt" viewBox="0 0 949.000000 949.000000"
 preserveAspectRatio="xMidYMid meet">
<metadata>
Created by potrace 1.14, written by Peter Selinger 2001-2017
</metadata>
<g transform="translate(0.000000,949.000000) scale(0.100000,-0.100000)"
fill="#000000" stroke="none">
<path d="M6855 8839 c-86 -6 -262 -32 -315 -45 -14 -3 -52 -12 -85 -19 -76
-16 -341 -104 -420 -140 -107 -47 -269 -131 -351 -180 -76 -46 -264 -173 -274
-185 -3 -3 -33 -28 -68 -54 -35 -27 -75 -59 -90 -73 -15 -14 -53 -47 -84 -74
-51 -45 -58 -48 -68 -32 -9 16 -10 15 -5 -5 6 -20 -7 -38 -77 -110 -110 -115
-179 -192 -241 -269 -28 -35 -54 -63 -58 -63 -5 0 -50 51 -102 113 -138 164
-262 288 -411 412 -83 69 -276 201 -381 262 -182 105 -411 206 -595 263 -93
28 -104 31 -110 32 -3 0 -25 7 -50 14 -52 15 -207 48 -300 63 -36 6 -81 13
-100 17 -61 10 -462 13 -530 4 -203 -29 -424 -92 -620 -177 -142 -61 -396
-211 -480 -282 -150 -127 -227 -199 -290 -269 -41 -46 -80 -89 -87 -97 -31
-33 -113 -145 -113 -154 0 -5 -4 -11 -8 -13 -18 -7 -128 -189 -196 -322 -64
-125 -147 -318 -146 -339 0 -4 -6 -20 -14 -35 -21 -41 -92 -302 -112 -412 -34
-185 -40 -223 -49 -325 -3 -38 -8 -86 -11 -105 -8 -52 -7 -425 1 -516 7 -78
36 -294 55 -407 23 -130 89 -365 155 -546 40 -111 150 -330 229 -456 100 -159
285 -424 351 -502 5 -6 24 -29 40 -49 17 -21 74 -89 128 -152 53 -62 97 -118
97 -123 0 -5 7 -9 15 -9 8 0 15 -5 15 -10 0 -6 13 -24 30 -41 16 -18 27 -37
23 -43 -3 -6 -3 -8 1 -4 10 8 76 -54 76 -71 0 -6 5 -11 10 -11 6 0 32 -23 58
-51 90 -97 102 -109 112 -109 6 0 10 -4 10 -9 0 -8 137 -151 145 -151 2 0 30
-26 63 -57 118 -115 191 -180 197 -175 3 3 5 -1 5 -9 0 -8 13 -22 29 -32 15
-9 54 -41 85 -72 32 -30 59 -55 62 -55 5 0 53 -41 113 -97 24 -24 51 -43 58
-43 8 0 11 -4 8 -10 -3 -5 1 -10 9 -10 9 0 16 -4 16 -10 0 -5 5 -10 10 -10 6
0 21 -10 34 -22 13 -13 40 -36 61 -53 20 -16 46 -38 56 -48 10 -9 23 -17 29
-17 5 0 10 -4 10 -10 0 -5 7 -10 17 -10 9 0 14 -3 10 -6 -7 -7 46 -54 62 -54
6 0 11 -4 11 -10 0 -5 6 -10 13 -10 7 0 18 -9 25 -20 7 -11 19 -20 27 -20 8 0
15 -7 15 -15 0 -8 6 -15 13 -15 8 0 23 -8 35 -17 54 -46 63 -53 70 -53 5 0 18
-14 31 -30 12 -17 27 -28 33 -24 5 4 13 2 17 -4 9 -15 100 -82 111 -82 6 0 10
-4 10 -10 0 -5 6 -10 13 -10 7 0 20 -8 29 -18 23 -24 40 -37 67 -52 22 -11 62
-44 99 -80 9 -8 17 -14 19 -12 4 3 48 -27 78 -53 12 -11 29 -21 38 -23 9 -1
31 -16 49 -32 17 -16 34 -27 38 -25 4 2 20 -8 36 -23 16 -15 46 -35 66 -46 20
-10 46 -27 57 -37 11 -11 26 -19 33 -19 8 0 20 -9 28 -19 7 -11 17 -18 21 -16
4 3 12 -2 19 -10 7 -8 19 -15 26 -15 8 0 14 -4 14 -8 0 -5 15 -16 32 -25 60
-31 128 -73 148 -90 11 -9 27 -17 35 -17 8 0 15 -4 15 -10 0 -5 9 -10 19 -10
10 0 21 -6 24 -13 3 -8 30 -26 61 -42 31 -16 56 -32 56 -37 0 -4 7 -8 15 -8
17 0 52 -18 73 -37 7 -7 24 -16 38 -19 13 -3 24 -12 24 -20 0 -13 11 -18 36
-15 6 1 17 -6 24 -14 7 -8 21 -15 31 -15 11 0 19 -4 19 -8 0 -4 25 -19 55 -32
30 -13 55 -28 55 -32 0 -4 3 -7 8 -6 9 2 61 -22 93 -44 14 -9 29 -15 33 -11 3
3 15 -2 26 -12 11 -10 20 -15 20 -12 0 3 30 -9 66 -28 37 -19 70 -32 75 -29 5
3 9 0 9 -5 0 -6 18 -14 40 -17 22 -4 40 -10 40 -15 0 -5 11 -9 24 -9 14 0 28
-4 31 -10 3 -5 19 -10 36 -10 16 0 29 -4 29 -9 0 -12 200 -12 215 -1 6 4 35
13 65 21 30 7 57 14 60 14 7 2 41 15 70 27 14 5 27 9 29 8 2 -1 7 3 11 10 4 6
13 12 21 14 8 1 25 8 39 16 47 27 98 48 103 43 3 -2 10 4 16 15 6 11 22 23 36
26 14 4 25 11 25 16 0 6 6 10 13 10 8 0 27 11 43 25 16 14 33 25 38 25 4 0 21
11 38 25 16 14 36 25 44 25 8 0 14 7 14 15 0 8 7 15 15 15 8 0 24 9 35 20 11
11 22 20 25 20 3 0 15 9 27 20 12 11 28 20 35 20 7 0 13 4 13 10 0 13 56 41
64 32 4 -3 4 1 0 11 -4 11 0 19 12 24 19 7 43 25 78 59 11 11 39 33 61 49 22
16 60 49 84 72 25 24 48 43 51 43 4 0 49 40 101 90 52 49 100 90 108 90 8 0
11 3 8 6 -7 7 42 54 56 54 5 0 5 5 2 10 -3 6 -1 10 5 10 10 0 194 175 313 299
34 35 92 95 130 133 37 37 67 70 67 73 0 2 25 30 55 62 30 32 55 61 55 65 0 5
7 8 15 8 8 0 15 5 15 10 0 6 25 35 55 65 30 29 55 56 55 59 0 6 46 59 108 124
17 19 32 37 32 41 0 3 22 30 49 59 26 28 46 52 44 52 -3 0 10 12 27 26 17 15
29 29 26 31 -4 4 24 41 67 85 9 10 14 18 10 18 -4 0 3 7 15 16 12 8 22 19 22
24 0 5 12 22 28 38 15 16 36 42 47 58 20 27 65 84 75 94 19 18 80 100 80 107
0 4 9 14 20 21 12 7 18 17 15 22 -3 6 -2 10 3 10 6 0 23 20 38 44 16 25 31 43
35 41 3 -3 14 13 24 35 10 22 21 40 24 40 3 0 17 17 31 38 14 20 37 51 52 67
16 17 28 36 28 43 0 6 5 12 12 12 6 0 9 3 5 6 -6 6 2 17 40 58 12 13 20 26 18
28 -2 2 7 17 21 33 14 17 32 42 40 58 8 15 19 27 24 27 6 0 10 6 10 13 0 7 7
22 15 32 31 41 141 211 160 248 11 20 22 37 26 37 4 0 12 14 19 30 7 17 16 30
20 30 5 0 13 14 19 30 5 17 15 30 22 30 7 0 9 3 6 7 -4 3 -3 11 2 17 5 6 21
34 37 61 15 28 32 59 38 70 6 10 17 25 24 33 11 13 16 28 13 45 0 4 3 7 9 7 5
0 21 25 35 55 15 30 31 53 36 49 5 -3 9 -2 8 3 -4 15 13 63 22 63 5 0 9 9 9
19 0 11 4 22 9 25 4 3 26 41 47 83 20 43 42 81 48 85 6 4 8 8 3 8 -4 0 2 16
13 37 10 20 17 40 14 45 -3 4 -1 8 4 8 7 0 52 89 52 105 0 3 9 21 20 40 11 20
20 44 20 55 0 11 5 20 10 20 6 0 10 8 10 19 0 10 7 24 15 31 8 7 15 21 15 32
0 11 7 26 15 34 8 9 15 26 15 40 0 13 4 32 9 42 5 9 17 37 26 62 10 25 21 54
25 65 18 45 40 120 40 137 0 10 5 18 11 18 6 0 9 6 6 14 -3 8 -3 17 1 20 3 4
7 12 9 19 14 62 55 241 63 277 6 25 13 66 15 91 3 26 7 56 10 67 4 21 18 278
18 327 0 137 -23 343 -49 455 -3 14 -7 37 -8 51 -2 14 -8 34 -13 45 -5 10 -9
26 -8 34 1 8 -2 20 -6 25 -4 6 -10 24 -13 40 -8 41 -39 129 -49 136 -5 3 -8 8
-6 10 1 2 -1 15 -5 29 -11 32 -9 27 -34 85 -12 28 -22 54 -21 59 0 5 -3 12 -8
15 -5 3 -26 40 -47 82 -43 87 -114 204 -144 235 -7 8 -11 14 -7 14 3 0 -3 10
-15 22 -11 12 -20 26 -20 31 0 5 -13 22 -30 37 -16 15 -30 32 -30 37 0 4 -15
22 -34 40 -19 17 -32 34 -29 37 4 3 1 6 -6 6 -7 0 -9 5 -6 10 3 6 -1 10 -9 10
-8 0 -18 9 -21 20 -3 11 -12 20 -20 20 -7 0 -15 9 -18 20 -3 11 -12 20 -20 20
-9 0 -19 9 -22 20 -3 11 -11 20 -17 20 -6 0 -26 18 -45 40 -20 22 -40 40 -45
40 -5 0 -22 14 -38 30 -16 17 -34 30 -39 30 -5 0 -13 9 -16 20 -4 11 -11 18
-16 15 -5 -4 -12 1 -15 9 -3 9 -10 13 -15 10 -5 -2 -32 12 -61 34 -70 51 -217
139 -298 179 -56 27 -95 44 -235 103 -123 51 -381 116 -545 136 -30 3 -64 8
-75 10 -40 8 -383 10 -470 3z"/>
</g>
</svg>
